<mxfile host="app.diagrams.net" agent="Mozilla/5.0 (X11; Linux x86_64) AppleWebKit/537.36 (KHTML, like Gecko) Chrome/133.0.0.0 Safari/537.36" version="25.0.1">
  <diagram name="Page-1" id="HtO-sQVVSbIr1sXiwVwz">
    <mxGraphModel dx="830" dy="444" grid="1" gridSize="10" guides="1" tooltips="1" connect="1" arrows="1" fold="1" page="1" pageScale="1" pageWidth="827" pageHeight="1169" math="0" shadow="0">
      <root>
        <mxCell id="0" />
        <mxCell id="1" parent="0" />
        <mxCell id="z6-CMWNSsbMh_gund5Vu-16" style="rounded=0;orthogonalLoop=1;jettySize=auto;html=1;entryX=0.5;entryY=0;entryDx=0;entryDy=0;endArrow=none;endFill=0;" edge="1" parent="1" source="z6-CMWNSsbMh_gund5Vu-1" target="z6-CMWNSsbMh_gund5Vu-3">
          <mxGeometry relative="1" as="geometry" />
        </mxCell>
        <mxCell id="z6-CMWNSsbMh_gund5Vu-17" style="rounded=0;orthogonalLoop=1;jettySize=auto;html=1;entryX=1;entryY=0;entryDx=0;entryDy=0;endArrow=none;endFill=0;" edge="1" parent="1" source="z6-CMWNSsbMh_gund5Vu-1" target="z6-CMWNSsbMh_gund5Vu-2">
          <mxGeometry relative="1" as="geometry" />
        </mxCell>
        <mxCell id="z6-CMWNSsbMh_gund5Vu-1" value="Root" style="ellipse;whiteSpace=wrap;html=1;aspect=fixed;" vertex="1" parent="1">
          <mxGeometry x="380" y="220" width="40" height="40" as="geometry" />
        </mxCell>
        <mxCell id="z6-CMWNSsbMh_gund5Vu-18" style="rounded=0;orthogonalLoop=1;jettySize=auto;html=1;entryX=1;entryY=0;entryDx=0;entryDy=0;endArrow=none;endFill=0;" edge="1" parent="1" source="z6-CMWNSsbMh_gund5Vu-2" target="z6-CMWNSsbMh_gund5Vu-11">
          <mxGeometry relative="1" as="geometry" />
        </mxCell>
        <mxCell id="z6-CMWNSsbMh_gund5Vu-19" style="rounded=0;orthogonalLoop=1;jettySize=auto;html=1;entryX=0.5;entryY=0;entryDx=0;entryDy=0;endArrow=none;endFill=0;" edge="1" parent="1" source="z6-CMWNSsbMh_gund5Vu-2" target="z6-CMWNSsbMh_gund5Vu-6">
          <mxGeometry relative="1" as="geometry" />
        </mxCell>
        <mxCell id="z6-CMWNSsbMh_gund5Vu-2" value="M" style="ellipse;whiteSpace=wrap;html=1;aspect=fixed;" vertex="1" parent="1">
          <mxGeometry x="340" y="280" width="40" height="40" as="geometry" />
        </mxCell>
        <mxCell id="z6-CMWNSsbMh_gund5Vu-28" style="rounded=0;orthogonalLoop=1;jettySize=auto;html=1;entryX=0.5;entryY=0;entryDx=0;entryDy=0;endArrow=none;endFill=0;" edge="1" parent="1" source="z6-CMWNSsbMh_gund5Vu-3" target="z6-CMWNSsbMh_gund5Vu-14">
          <mxGeometry relative="1" as="geometry" />
        </mxCell>
        <mxCell id="z6-CMWNSsbMh_gund5Vu-3" value="E" style="ellipse;whiteSpace=wrap;html=1;aspect=fixed;" vertex="1" parent="1">
          <mxGeometry x="420" y="280" width="40" height="40" as="geometry" />
        </mxCell>
        <mxCell id="z6-CMWNSsbMh_gund5Vu-23" style="rounded=0;orthogonalLoop=1;jettySize=auto;html=1;entryX=0.5;entryY=0;entryDx=0;entryDy=0;endArrow=none;endFill=0;" edge="1" parent="1" source="z6-CMWNSsbMh_gund5Vu-4" target="z6-CMWNSsbMh_gund5Vu-7">
          <mxGeometry relative="1" as="geometry" />
        </mxCell>
        <mxCell id="z6-CMWNSsbMh_gund5Vu-4" value="I" style="ellipse;whiteSpace=wrap;html=1;aspect=fixed;" vertex="1" parent="1">
          <mxGeometry x="440" y="510" width="40" height="40" as="geometry" />
        </mxCell>
        <mxCell id="z6-CMWNSsbMh_gund5Vu-26" style="rounded=0;orthogonalLoop=1;jettySize=auto;html=1;entryX=0.5;entryY=0;entryDx=0;entryDy=0;endArrow=none;endFill=0;" edge="1" parent="1" source="z6-CMWNSsbMh_gund5Vu-5" target="z6-CMWNSsbMh_gund5Vu-15">
          <mxGeometry relative="1" as="geometry" />
        </mxCell>
        <mxCell id="z6-CMWNSsbMh_gund5Vu-5" value="L" style="ellipse;whiteSpace=wrap;html=1;aspect=fixed;" vertex="1" parent="1">
          <mxGeometry x="240" y="380" width="40" height="40" as="geometry" />
        </mxCell>
        <mxCell id="z6-CMWNSsbMh_gund5Vu-20" style="rounded=0;orthogonalLoop=1;jettySize=auto;html=1;entryX=0.5;entryY=0;entryDx=0;entryDy=0;endArrow=none;endFill=0;" edge="1" parent="1" source="z6-CMWNSsbMh_gund5Vu-6" target="z6-CMWNSsbMh_gund5Vu-9">
          <mxGeometry relative="1" as="geometry" />
        </mxCell>
        <mxCell id="z6-CMWNSsbMh_gund5Vu-6" value="A" style="ellipse;whiteSpace=wrap;html=1;aspect=fixed;" vertex="1" parent="1">
          <mxGeometry x="374" y="330" width="40" height="40" as="geometry" />
        </mxCell>
        <mxCell id="z6-CMWNSsbMh_gund5Vu-24" style="rounded=0;orthogonalLoop=1;jettySize=auto;html=1;entryX=0.5;entryY=0;entryDx=0;entryDy=0;endArrow=none;endFill=0;" edge="1" parent="1" source="z6-CMWNSsbMh_gund5Vu-7" target="z6-CMWNSsbMh_gund5Vu-13">
          <mxGeometry relative="1" as="geometry" />
        </mxCell>
        <mxCell id="z6-CMWNSsbMh_gund5Vu-7" value="N" style="ellipse;whiteSpace=wrap;html=1;aspect=fixed;fillColor=#d5e8d4;strokeColor=#82b366;" vertex="1" parent="1">
          <mxGeometry x="470" y="570" width="40" height="40" as="geometry" />
        </mxCell>
        <mxCell id="z6-CMWNSsbMh_gund5Vu-8" value="A" style="ellipse;whiteSpace=wrap;html=1;aspect=fixed;fillColor=#f8cecc;strokeColor=#b85450;" vertex="1" parent="1">
          <mxGeometry x="520" y="390" width="40" height="40" as="geometry" />
        </mxCell>
        <mxCell id="z6-CMWNSsbMh_gund5Vu-21" style="rounded=0;orthogonalLoop=1;jettySize=auto;html=1;entryX=0.5;entryY=0;entryDx=0;entryDy=0;endArrow=none;endFill=0;" edge="1" parent="1" source="z6-CMWNSsbMh_gund5Vu-9" target="z6-CMWNSsbMh_gund5Vu-10">
          <mxGeometry relative="1" as="geometry" />
        </mxCell>
        <mxCell id="z6-CMWNSsbMh_gund5Vu-9" value="R" style="ellipse;whiteSpace=wrap;html=1;aspect=fixed;" vertex="1" parent="1">
          <mxGeometry x="394" y="390" width="40" height="40" as="geometry" />
        </mxCell>
        <mxCell id="z6-CMWNSsbMh_gund5Vu-22" style="rounded=0;orthogonalLoop=1;jettySize=auto;html=1;entryX=0.5;entryY=0;entryDx=0;entryDy=0;endArrow=none;endFill=0;" edge="1" parent="1" source="z6-CMWNSsbMh_gund5Vu-10" target="z6-CMWNSsbMh_gund5Vu-4">
          <mxGeometry relative="1" as="geometry" />
        </mxCell>
        <mxCell id="z6-CMWNSsbMh_gund5Vu-10" value="T" style="ellipse;whiteSpace=wrap;html=1;aspect=fixed;" vertex="1" parent="1">
          <mxGeometry x="414" y="450" width="40" height="40" as="geometry" />
        </mxCell>
        <mxCell id="z6-CMWNSsbMh_gund5Vu-25" style="rounded=0;orthogonalLoop=1;jettySize=auto;html=1;entryX=0.5;entryY=0;entryDx=0;entryDy=0;endArrow=none;endFill=0;" edge="1" parent="1" source="z6-CMWNSsbMh_gund5Vu-11" target="z6-CMWNSsbMh_gund5Vu-5">
          <mxGeometry relative="1" as="geometry" />
        </mxCell>
        <mxCell id="z6-CMWNSsbMh_gund5Vu-11" value="I" style="ellipse;whiteSpace=wrap;html=1;aspect=fixed;" vertex="1" parent="1">
          <mxGeometry x="290" y="330" width="40" height="40" as="geometry" />
        </mxCell>
        <mxCell id="z6-CMWNSsbMh_gund5Vu-12" value="N" style="ellipse;whiteSpace=wrap;html=1;aspect=fixed;fillColor=#dae8fc;strokeColor=#6c8ebf;" vertex="1" parent="1">
          <mxGeometry x="150" y="480" width="40" height="40" as="geometry" />
        </mxCell>
        <mxCell id="z6-CMWNSsbMh_gund5Vu-13" value="A" style="ellipse;whiteSpace=wrap;html=1;aspect=fixed;fillColor=#fff2cc;strokeColor=#d6b656;" vertex="1" parent="1">
          <mxGeometry x="510" y="630" width="40" height="40" as="geometry" />
        </mxCell>
        <mxCell id="z6-CMWNSsbMh_gund5Vu-29" style="rounded=0;orthogonalLoop=1;jettySize=auto;html=1;entryX=0.5;entryY=0;entryDx=0;entryDy=0;endArrow=none;endFill=0;" edge="1" parent="1" source="z6-CMWNSsbMh_gund5Vu-14" target="z6-CMWNSsbMh_gund5Vu-8">
          <mxGeometry relative="1" as="geometry" />
        </mxCell>
        <mxCell id="z6-CMWNSsbMh_gund5Vu-14" value="V" style="ellipse;whiteSpace=wrap;html=1;aspect=fixed;" vertex="1" parent="1">
          <mxGeometry x="470" y="330" width="40" height="40" as="geometry" />
        </mxCell>
        <mxCell id="z6-CMWNSsbMh_gund5Vu-27" style="rounded=0;orthogonalLoop=1;jettySize=auto;html=1;entryX=0.5;entryY=0;entryDx=0;entryDy=0;endArrow=none;endFill=0;" edge="1" parent="1" source="z6-CMWNSsbMh_gund5Vu-15" target="z6-CMWNSsbMh_gund5Vu-12">
          <mxGeometry relative="1" as="geometry" />
        </mxCell>
        <mxCell id="z6-CMWNSsbMh_gund5Vu-15" value="A" style="ellipse;whiteSpace=wrap;html=1;aspect=fixed;" vertex="1" parent="1">
          <mxGeometry x="190" y="430" width="40" height="40" as="geometry" />
        </mxCell>
      </root>
    </mxGraphModel>
  </diagram>
</mxfile>
